G04 ================== begin FILE IDENTIFICATION RECORD ==================*
G04 Layout Name:  G:/GitHub/W8782-Module-Baseboard/PCB/W8782_baseboard.brd*
G04 Film Name:    02_BOTTOM*
G04 File Format:  Gerber RS274X*
G04 File Origin:  Cadence Allegro 16.6-2015-S108*
G04 Origin Date:  Thu Feb 27 14:58:52 2020*
G04 *
G04 Layer:  BOARD GEOMETRY/OUTLINE*
G04 Layer:  ETCH/BOTTOM*
G04 Layer:  PIN/BOTTOM*
G04 Layer:  VIA CLASS/BOTTOM*
G04 *
G04 Offset:    (0.00 0.00)*
G04 Mirror:    No*
G04 Mode:      Positive*
G04 Rotation:  0*
G04 FullContactRelief:  No*
G04 UndefLineWidth:     6.00*
G04 ================== end FILE IDENTIFICATION RECORD ====================*
%FSLAX25Y25*MOIN*%
%IR0*IPPOS*OFA0.00000B0.00000*MIA0B0*SFA1.00000B1.00000*%
%ADD12C,.024*%
%ADD10C,.06299*%
%ADD11R,.06299X.06299*%
%ADD13C,.015*%
%ADD14C,.006*%
%ADD15C,.008*%
%ADD17C,.07302*%
%ADD16C,.08302*%
G75*
%LPD*%
G75*
G36*
G01X90540Y39673D02*
G03X85851Y46310I-3039J2827D01*
G01X85726Y46256D01*
X84402Y47581D01*
Y48835D01*
G02X85039Y49157I400J0D01*
G03X88902Y56407I2461J3343D01*
G01Y67081D01*
X88900Y67082D01*
Y75200D01*
X77700Y86400D01*
X72402D01*
Y91081D01*
X69694Y93788D01*
X69699Y93878D01*
G03X67622Y91801I-2199J122D01*
G01X67712Y91806D01*
X69598Y89919D01*
Y85898D01*
X67869Y84169D01*
X67772Y84181D01*
G03X66300Y80150I-272J-2185D01*
G01Y72100D01*
X73300Y65100D01*
X81598D01*
Y55152D01*
G02X80873Y54919I-400J0D01*
G03Y50081I-3373J-2419D01*
G02X81598Y49848I325J-233D01*
G01Y46419D01*
X83744Y44274D01*
X83690Y44149D01*
G03X84460Y39673I3810J-1649D01*
G02X84167Y39001I-293J-272D01*
G01X80833D01*
G02X80540Y39673I0J400D01*
G03X74460I-3040J2827D01*
G02X74167Y39001I-293J-272D01*
G01X71651D01*
Y46651D01*
X63349D01*
Y39001D01*
X56501D01*
Y122200D01*
X118499D01*
Y39001D01*
X110833D01*
G02X110540Y39673I0J400D01*
G03X104460I-3040J2827D01*
G02X104167Y39001I-293J-272D01*
G01X100833D01*
G02X100540Y39673I0J400D01*
G03X94460I-3040J2827D01*
G02X94167Y39001I-293J-272D01*
G01X90833D01*
G02X90540Y39673I0J400D01*
G37*
%LPC*%
G75*
G54D17*
X107500Y52500D03*
G54D16*
X67500D03*
X97500D03*
%LPD*%
G75*
G54D10*
X77500Y42500D03*
Y52500D03*
X67500D03*
X107500Y42500D03*
X97500D03*
X87500D03*
X107500Y52500D03*
X97500D03*
X87500D03*
G54D11*
X67500Y42500D03*
G54D12*
Y87902D03*
Y94000D03*
Y81996D03*
X80000Y115500D03*
X75000D03*
X69000D03*
X63000D03*
X58500Y119000D03*
X78000Y105500D03*
X79000Y110000D03*
X69500Y112000D03*
X58500Y110500D03*
X59000Y114500D03*
X65500Y110000D03*
X74000Y107500D03*
Y111500D03*
X107500Y65500D03*
X90000Y69500D03*
X90200Y63500D03*
X106000Y71500D03*
X107500Y61000D03*
X110000Y57500D03*
X105000D03*
X107020Y93807D03*
Y81996D03*
X87500Y102500D03*
X90000Y99000D03*
X93000Y96000D03*
X96000Y93000D03*
X99500Y89500D03*
X103500Y86000D03*
X104000Y97000D03*
X100500Y100000D03*
X88000Y86500D03*
X89500Y77500D03*
X95500Y82000D03*
X95000Y76000D03*
X102000Y80000D03*
X87000Y94500D03*
X94000Y88500D03*
X84000Y99000D03*
X87000Y81000D03*
X85000Y115000D03*
Y111500D03*
X85500Y107000D03*
X97000Y104000D03*
X94500Y108500D03*
X93000Y113000D03*
X99000Y119500D03*
X81000Y103000D03*
X102000Y109500D03*
X107500Y118000D03*
X107000Y112500D03*
X98500Y114000D03*
X105000Y103000D03*
X103500Y120500D03*
X112000Y121000D03*
X114500Y112000D03*
X115500Y118500D03*
X112000Y115500D03*
G54D13*
G01X107500Y48648D02*
Y52500D01*
G01D02*
Y56352D01*
G01X103648Y52500D02*
X107500D01*
G01D02*
X111352D01*
G54D14*
G01X54500Y147500D02*
Y37000D01*
X120500D01*
Y147500D01*
X54500D01*
G54D15*
G01X67500Y81996D02*
X68504D01*
X71397Y79103D01*
Y77971D01*
X67779Y74353D01*
Y73221D01*
X68910Y72090D01*
X70042D01*
X73660Y75708D01*
X74792D01*
X75923Y74577D01*
Y73445D01*
X72305Y69827D01*
Y68695D01*
X73436Y67564D01*
X74568D01*
X78186Y71182D01*
X79318D01*
X83000Y67500D01*
Y47000D01*
X87500Y42500D01*
G01Y52500D02*
Y66500D01*
X85124Y68876D01*
Y70008D01*
X86742Y71626D01*
Y72758D01*
X85611Y73889D01*
X84479D01*
X82861Y72271D01*
X81729D01*
X80598Y73402D01*
Y74534D01*
X82216Y76152D01*
Y77284D01*
X81085Y78415D01*
X79953D01*
X78335Y76797D01*
X77203D01*
X75343Y78657D01*
Y79789D01*
X78211Y82657D01*
Y83789D01*
X77080Y84920D01*
X75948D01*
X73080Y82052D01*
X71948D01*
X71000Y83000D01*
Y90500D01*
X67500Y94000D01*
M02*
