G04 ================== begin FILE IDENTIFICATION RECORD ==================*
G04 Layout Name:  G:/GitHub/W8782-Module-Baseboard/PCB/W8782_baseboard.brd*
G04 Film Name:    04_SILK_TOP*
G04 File Format:  Gerber RS274X*
G04 File Origin:  Cadence Allegro 16.6-2015-S108*
G04 Origin Date:  Thu Feb 27 14:58:53 2020*
G04 *
G04 Layer:  BOARD GEOMETRY/OUTLINE*
G04 Layer:  PACKAGE GEOMETRY/SILKSCREEN_TOP*
G04 Layer:  BOARD GEOMETRY/SILKSCREEN_TOP*
G04 Layer:  REF DES/SILKSCREEN_TOP*
G04 *
G04 Offset:    (0.00 0.00)*
G04 Mirror:    No*
G04 Mode:      Positive*
G04 Rotation:  0*
G04 FullContactRelief:  No*
G04 UndefLineWidth:     6.00*
G04 ================== end FILE IDENTIFICATION RECORD ====================*
%FSLAX25Y25*MOIN*%
%IR0*IPPOS*OFA0.00000B0.00000*MIA0B0*SFA1.00000B1.00000*%
%ADD10C,.004*%
%ADD11C,.005*%
%ADD12C,.006*%
G75*
%LPD*%
G75*
G36*
G01X61202Y115500D02*
G03I-3202J0D01*
G37*
G54D10*
G01X60000Y41000D02*
Y44500D01*
X59400Y43800D01*
G01Y41000D02*
X60600D01*
G01X59050Y53917D02*
X59350Y54267D01*
X59700Y54442D01*
X60100Y54500D01*
X60600Y54383D01*
X60950Y54092D01*
X61050Y53742D01*
X61000Y53392D01*
X60800Y53100D01*
X59800Y52517D01*
X59350Y52108D01*
X59050Y51525D01*
X58950Y51000D01*
X61050D01*
G01X85583Y59000D02*
X85750Y58750D01*
X85950Y58583D01*
X86183Y58500D01*
X86450Y58583D01*
X86650Y58750D01*
X86850Y59000D01*
X86917Y59333D01*
Y61000D01*
G01X88750Y58500D02*
Y61000D01*
X88350Y60500D01*
G01Y58500D02*
X89150D01*
G01X114150Y40908D02*
X114500Y40617D01*
X114900Y40500D01*
X115300Y40617D01*
X115650Y40967D01*
X115900Y41492D01*
X116000Y42017D01*
Y42658D01*
X115900Y43183D01*
X115650Y43650D01*
X115350Y43883D01*
X115000Y44000D01*
X114600Y43883D01*
X114300Y43650D01*
X114100Y43300D01*
X114000Y42833D01*
X114100Y42425D01*
X114350Y42017D01*
X114650Y41783D01*
X115000Y41725D01*
X115400Y41842D01*
X115700Y42133D01*
X116000Y42658D01*
G01X114250Y50500D02*
Y54000D01*
X113650Y53300D01*
G01Y50500D02*
X114850D01*
G01X117750Y54000D02*
X117350Y53883D01*
X117050Y53592D01*
X116850Y53242D01*
X116700Y52775D01*
X116650Y52250D01*
X116700Y51725D01*
X116850Y51258D01*
X117050Y50908D01*
X117350Y50617D01*
X117750Y50500D01*
X118150Y50617D01*
X118450Y50908D01*
X118650Y51258D01*
X118800Y51725D01*
X118850Y52250D01*
X118800Y52775D01*
X118650Y53242D01*
X118450Y53592D01*
X118150Y53883D01*
X117750Y54000D01*
G01X113583Y118000D02*
Y115850D01*
X113750Y115400D01*
X114083Y115100D01*
X114500Y115000D01*
X114917Y115100D01*
X115250Y115400D01*
X115417Y115850D01*
Y118000D01*
G01X117500Y115000D02*
Y118000D01*
X117000Y117400D01*
G01Y115000D02*
X118000D01*
G54D11*
G01X62500Y57500D02*
X112500D01*
Y37500D01*
X62500D01*
Y57500D01*
G01X60685Y68550D02*
Y62311D01*
G01D02*
X113677D01*
G01X60685Y98000D02*
Y95400D01*
G01Y92200D02*
Y89700D01*
G01Y86150D02*
Y83650D01*
G01Y80400D02*
Y77550D01*
G01Y74500D02*
Y71600D01*
G01Y104000D02*
Y101250D01*
G01Y113492D02*
Y107100D01*
G01X113677Y113492D02*
X60685D01*
G01X77333Y116500D02*
Y114000D01*
X78667D01*
G01X80500D02*
Y116500D01*
X80100Y116000D01*
G01Y114000D02*
X80900D01*
G01X85000Y117000D02*
X73000D01*
Y122000D01*
X85000D01*
Y117000D01*
G01X65233Y116292D02*
X65033Y116417D01*
X64800Y116500D01*
X64533D01*
X64233Y116375D01*
X64000Y116167D01*
X63833Y115917D01*
X63700Y115500D01*
X63667Y115125D01*
X63733Y114750D01*
X63833Y114500D01*
X64033Y114250D01*
X64267Y114083D01*
X64500Y114000D01*
X64733D01*
X64967Y114083D01*
X65167Y114208D01*
X65333Y114375D01*
G01X66367Y116083D02*
X66567Y116333D01*
X66800Y116458D01*
X67067Y116500D01*
X67400Y116417D01*
X67633Y116208D01*
X67700Y115958D01*
X67667Y115708D01*
X67533Y115500D01*
X66867Y115083D01*
X66567Y114792D01*
X66367Y114375D01*
X66300Y114000D01*
X67700D01*
G01X71500Y117000D02*
X67000D01*
G01X66400Y118400D02*
Y120700D01*
G01X65700Y118400D02*
Y120700D01*
G01X67000Y122000D02*
X71500D01*
Y117000D01*
G01X65000D02*
X60500D01*
Y122000D01*
X65000D01*
G01X91733Y116292D02*
X91533Y116417D01*
X91300Y116500D01*
X91033D01*
X90733Y116375D01*
X90500Y116167D01*
X90333Y115917D01*
X90200Y115500D01*
X90167Y115125D01*
X90233Y114750D01*
X90333Y114500D01*
X90533Y114250D01*
X90767Y114083D01*
X91000Y114000D01*
X91233D01*
X91467Y114083D01*
X91667Y114208D01*
X91833Y114375D01*
G01X93500Y114000D02*
Y116500D01*
X93100Y116000D01*
G01Y114000D02*
X93900D01*
G01X86500Y122000D02*
X91000D01*
G01X91600Y120600D02*
Y118300D01*
G01X92300Y120600D02*
Y118300D01*
G01X91000Y117000D02*
X86500D01*
Y122000D01*
G01X93000D02*
X97500D01*
Y117000D01*
X93000D01*
G01X113677Y62311D02*
Y68550D01*
G01Y95550D02*
Y98150D01*
G01Y89450D02*
Y92150D01*
G01Y83650D02*
Y86300D01*
G01Y77700D02*
Y80300D01*
G01Y71700D02*
Y74500D01*
G01Y107250D02*
Y113492D01*
G01Y101400D02*
Y103950D01*
G54D12*
G01X54500Y147500D02*
Y37000D01*
X120500D01*
Y147500D01*
X54500D01*
M02*
